<svg width="580" height="400" xmlns="http://www.w3.org/2000/svg">
 <!-- Created with Method Draw - http://github.com/duopixel/Method-Draw/ -->

 <g>
  <title>background</title>
  <rect fill="none" id="canvas_background" height="402" width="582" y="-1" x="-1"/>
  <g display="none" overflow="visible" y="0" x="0" height="100%" width="100%" id="canvasGrid">
   <rect fill="url(#gridpattern)" stroke-width="0" y="0" x="0" height="100%" width="100%"/>
  </g>
 </g>
 <g>
  <title>Layer 1</title>
  <!-- Created with Method Draw - http://github.com/duopixel/Method-Draw/ -->
  <g stroke="null" id="svg_67">
   <g stroke="null" transform="matrix(0.9552828477210443,0,0,0.967837565984529,-4957.3556265660445,-3461.476896633821) " id="svg_64">
    <title stroke="null" transform="translate(5.461133003234863,0) translate(0,1.7969238758087158) translate(-0.9102698564529419,-1.7969238758087158) translate(0,1.7969238758087158) translate(0.9102698564529419,-0.8984619379043579) translate(5197.52490234375,0) translate(0,3584.5) ">background</title>
    <rect stroke="null" x="5201.986035" y="3584.398462" width="582" height="402" id="svg_62" fill="none"/>
    <g stroke="null" id="svg_61" display="none">
     <rect stroke="null" id="svg_65" width="580" height="400" x="5202.986035" y="3585.398462" stroke-width="0" fill="url(#gridpattern)"/>
    </g>
   </g>
   <g stroke="null" transform="matrix(0.9552828477210443,0,0,0.967837565984529,-4957.3556265660445,-3461.476896633821) " id="svg_66">
    <title stroke="null" transform="translate(5.461133003234863,0) translate(0,1.7969238758087158) translate(-0.9102698564529419,-1.7969238758087158) translate(0,1.7969238758087158) translate(0.9102698564529419,-0.8984619379043579) translate(5197.52490234375,0) translate(0,3584.5) ">Layer 1</title>
    <path stroke="#000" fill="none" stroke-width="2.5" d="m5353.723535,3598.343462l-20.8875,22.61905l-20.8875,22.61905l-20.8875,22.61904l-20.8875,22.61905l19.495,0l19.495,0l0,29.40476l0,29.40477l0,29.40476l0,117.61906l0,-88.2143l0,29.40477l0,29.40476l0,58.80953l22.28,0l22.28,0l22.28,0l22.28,0l0,-29.40476l0,-29.40477l0,-29.40476l0,-29.40477l0,-29.40476l0,-29.40476l0,-29.40477l0,-29.40476l19.495,0l19.495,0l-20.8875,-22.61905l-20.8875,-22.61904l-20.8875,-22.61905l-20.8875,-22.61905zm278.50005,0l-41.77504,45.2381l-41.77498,45.23809l38.99,0l0,235.23811l89.11998,0l0,-235.23811l38.99,0l-41.775,-45.23809l-41.77498,-45.2381l0.00002,0zm-417.75005,343.80955l0,36.19047l557.00001,0l0,-36.19047l-557.00001,0z" id="svg_60"/>
    <line stroke="#ffffff" fill="none" stroke-width="13.5" x1="5398.486035" y1="3910.398462" x2="5398.486035" y2="3902.398462" id="svg_59" stroke-linejoin="null" stroke-linecap="null"/>
    <line stroke="#ffffff" fill="none" stroke-width="9.5" x1="5398.486035" y1="3881.398462" x2="5397.486035" y2="3866.398462" id="svg_58" stroke-linejoin="null" stroke-linecap="null"/>
    <line stroke="#fff" fill="none" stroke-width="5.5" x1="5397.486035" y1="3845.398462" x2="5398.486035" y2="3833.398462" id="svg_57" stroke-linejoin="null" stroke-linecap="null"/>
    <line stroke="#fff" fill="none" stroke-width="4.5" x1="5398.486035" y1="3809.398462" x2="5397.486035" y2="3797.398462" id="svg_56" stroke-linejoin="null" stroke-linecap="null"/>
    <line stroke="#fff" fill="none" stroke-width="7.5" x1="5398.486035" y1="3780.398462" x2="5397.486035" y2="3770.398462" id="svg_55" stroke-linejoin="null" stroke-linecap="null"/>
    <line stroke="#ffffff" fill="none" stroke-width="5.5" x1="5398.486035" y1="3743.398462" x2="5397.486035" y2="3730.398462" id="svg_54" stroke-linejoin="null" stroke-linecap="null"/>
    <line stroke="#ffffff" fill="none" stroke-width="5.5" x1="5398.486035" y1="3693.398462" x2="5399.486035" y2="3713.398462" id="svg_53" stroke-linejoin="null" stroke-linecap="null"/>
    <line stroke="#ffffff" fill="none" stroke-width="5.5" x1="5424.486035" y1="3688.398462" x2="5415.486035" y2="3689.398462" id="svg_52" stroke-linejoin="null" stroke-linecap="null"/>
    <line stroke="#ffffff" fill="none" stroke-width="8.5" stroke-opacity="null" fill-opacity="null" x1="5428.486035" y1="3679.398462" x2="5418.486035" y2="3668.398462" id="svg_51" stroke-linejoin="null" stroke-linecap="null"/>
    <line stroke="#ffffff" fill="none" stroke-width="8.5" stroke-opacity="null" fill-opacity="null" x1="5400.486035" y1="3648.398462" x2="5408.486035" y2="3654.398462" id="svg_50" stroke-linejoin="null" stroke-linecap="null"/>
    <line stroke="#ffffff" fill="none" stroke-width="8.5" stroke-opacity="null" fill-opacity="null" x1="5385.486035" y1="3632.398462" x2="5391.486035" y2="3637.398462" id="svg_49" stroke-linejoin="null" stroke-linecap="null"/>
    <line stroke="#ffffff" fill="none" stroke-width="8.5" stroke-opacity="null" fill-opacity="null" x1="5366.486035" y1="3611.398462" x2="5353.486035" y2="3599.398462" id="svg_48" stroke-linejoin="null" stroke-linecap="null"/>
    <line stroke="#ffffff" fill="none" stroke-width="8.5" stroke-opacity="null" fill-opacity="null" x1="5345.486035" y1="3607.398462" x2="5360.486035" y2="3592.398462" id="svg_47" stroke-linejoin="null" stroke-linecap="null"/>
    <line stroke="#ffffff" fill="none" stroke-width="8.5" stroke-opacity="null" fill-opacity="null" x1="5334.486035" y1="3619.398462" x2="5327.486035" y2="3630.398462" id="svg_46" stroke-linejoin="null" stroke-linecap="null"/>
    <line stroke="#ffffff" fill="none" stroke-width="8.5" stroke-opacity="null" fill-opacity="null" x1="5310.486035" y1="3645.398462" x2="5299.486035" y2="3656.398462" id="svg_45" stroke-linejoin="null" stroke-linecap="null"/>
    <line stroke="#ffffff" fill="none" stroke-width="8.5" stroke-opacity="null" fill-opacity="null" x1="5281.486035" y1="3677.398462" x2="5264.486035" y2="3692.398462" id="svg_44" stroke-linejoin="null" stroke-linecap="null"/>
    <line stroke="#ffffff" fill="none" stroke-width="8.5" stroke-opacity="null" fill-opacity="null" x1="5304.486035" y1="3688.398462" x2="5289.486035" y2="3687.398462" id="svg_43" stroke-linejoin="null" stroke-linecap="null"/>
    <line stroke="#ffffff" fill="none" stroke-width="8.5" stroke-opacity="null" fill-opacity="null" x1="5309.486035" y1="3921.398462" x2="5309.486035" y2="3908.398462" id="svg_42" stroke-linejoin="null" stroke-linecap="null"/>
    <line stroke="#ffffff" fill="none" stroke-width="8.5" stroke-opacity="null" fill-opacity="null" x1="5309.486035" y1="3694.398462" x2="5309.486035" y2="3708.398462" id="svg_41" stroke-linejoin="null" stroke-linecap="null"/>
    <line stroke="#ffffff" fill="none" stroke-width="8.5" stroke-opacity="null" fill-opacity="null" x1="5309.486035" y1="3726.398462" x2="5308.486035" y2="3746.398462" id="svg_40" stroke-linejoin="null" stroke-linecap="null"/>
    <line stroke="#ffffff" fill="none" stroke-width="8.5" stroke-opacity="null" fill-opacity="null" x1="5309.486035" y1="3771.398462" x2="5308.486035" y2="3779.398462" id="svg_39" stroke-linejoin="null" stroke-linecap="null"/>
    <line stroke="#ffffff" fill="none" stroke-width="8.5" stroke-opacity="null" fill-opacity="null" x1="5309.486035" y1="3793.398462" x2="5309.486035" y2="3810.398462" id="svg_38" stroke-linejoin="null" stroke-linecap="null"/>
    <line stroke="#ffffff" fill="none" stroke-width="8.5" stroke-opacity="null" fill-opacity="null" x1="5309.486035" y1="3827.398462" x2="5310.486035" y2="3840.398462" id="svg_37" stroke-linejoin="null" stroke-linecap="null"/>
    <line stroke="#fff" fill="none" stroke-width="4.5" x1="5309.486035" y1="3856.398462" x2="5309.486035" y2="3872.398462" id="svg_36" stroke-linejoin="null" stroke-linecap="null"/>
    <line stroke="#fff" fill="none" stroke-width="4.5" x1="5309.486035" y1="3887.398462" x2="5309.486035" y2="3900.398462" id="svg_35" stroke-linejoin="null" stroke-linecap="null"/>
    <line stroke="null" fill="none" stroke-width="3.5" x1="5331.486035" y1="3924.398462" x2="5347.486035" y2="3924.398462" id="svg_34" stroke-linejoin="null" stroke-linecap="null"/>
    <line stroke="null" fill="none" stroke-width="9.5" x1="5372.486035" y1="3924.398462" x2="5387.486035" y2="3924.398462" id="svg_33" stroke-linejoin="null" stroke-linecap="null"/>
   </g>
  </g>
  <path stroke="#000" transform="rotate(106.1833267211914 315.05047607421875,205.2242889404297) " id="svg_68" d="m316.94515,228.944458c-0.653173,0.062493 -1.32097,0.105696 -2.00779,0.105696l0,0c-0.614348,0 -1.211124,-0.034195 -1.793274,-0.084894l0,0l-5.040666,6.586628l-1.239649,-0.357286c-1.454952,-0.415373 -2.868184,-0.93649 -4.227193,-1.561793l0,0l-1.178144,-0.541934l0.303136,-8.273461c-1.071267,-0.762325 -2.070739,-1.610957 -2.996335,-2.541432l0,0l-7.969604,1.740472l-0.72784,-1.086945c-0.853786,-1.275892 -1.581621,-2.612909 -2.226692,-3.964696l0,0l-0.560171,-1.180705l5.411205,-6.08932c-0.338313,-1.28936 -0.562359,-2.620402 -0.678053,-3.976657l0,0l-7.170755,-3.854568l0.130329,-1.305769c0.153793,-1.561819 0.451053,-3.056571 0.806189,-4.49329l0,0l0.317076,-1.274502l7.998164,-1.125544c0.570392,-1.223828 1.241884,-2.383621 1.998258,-3.47348l0,0l-3.051934,-7.639202l0.921159,-0.917129c1.082939,-1.071971 2.24209,-2.044157 3.451708,-2.933021l0,0l1.047836,-0.768187l6.904219,4.408398c1.163546,-0.544884 2.380496,-0.993031 3.641393,-1.336984l0,0l2.502781,-7.89529l1.290194,-0.099723c0.694902,-0.052093 1.441785,-0.113161 2.25381,-0.113161l0,0c0.809844,0 1.5545,0.061068 2.249432,0.113161l0,0l1.290159,0.099723l2.52986,7.977236c1.212579,0.343863 2.387827,0.783097 3.514008,1.316136l0,0l7.000881,-4.471057l1.051482,0.76827c1.20965,0.887375 2.370936,1.862528 3.451756,2.930048l0,0l0.924779,0.917129l-3.145663,7.865548c0.685383,1.01238 1.303363,2.084375 1.831322,3.211422l0,0l8.247872,1.161271l0.320705,1.27442c0.360263,1.435291 0.6561,2.930041 0.806166,4.49484l0,0l0.130369,1.305686l-7.421202,3.988544c-0.111278,1.237293 -0.308985,2.455172 -0.604086,3.641734l0,0l5.591329,6.279976l-0.562336,1.185054c-0.642897,1.356364 -1.367098,2.697793 -2.224539,3.969251l0,0l-0.727833,1.083837l-8.167302,-1.779081c-0.865506,0.879861 -1.802745,1.689812 -2.804473,2.420837l0,0l0.311189,8.435744l-1.181081,0.543439c-1.360502,0.622332 -2.771511,1.144919 -4.226414,1.560308l0,0l-1.244097,0.357314l-5.051645,-6.603015l0,0l0.000002,0.000002zm6.48171,2.112706c0.435704,-0.147441 0.864049,-0.306784 1.287976,-0.476514l0,0l-0.291418,-7.96673l0.918967,-0.600047c1.376579,-0.908131 2.630152,-1.998013 3.743162,-3.235182l0,0l0.741013,-0.824783l7.728002,1.682319c0.232121,-0.394563 0.456893,-0.798021 0.673621,-1.210383l0,0l-5.285966,-5.941959l0.328038,-1.06158c0.466407,-1.529028 0.73149,-3.168273 0.809825,-4.878838l0,0l0.048329,-1.113728l7.021359,-3.77266c-0.073209,-0.457099 -0.15738,-0.911177 -0.25333,-1.366816l0,0l-7.812187,-1.098671l-0.420261,-1.027345c-0.628279,-1.536537 -1.459374,-2.974714 -2.451545,-4.301251l0,0l-0.656088,-0.88438l2.971399,-7.430755c-0.344158,-0.306772 -0.697096,-0.604486 -1.059542,-0.893315l0,0l-6.632541,4.232775l-0.976817,-0.524145c-1.446861,-0.774188 -3.011668,-1.362285 -4.662129,-1.743391l0,0l-1.06758,-0.248611l-2.395118,-7.551401c-0.232877,-0.01187 -0.459125,-0.017884 -0.679524,-0.017884l0,0c-0.224816,0 -0.451058,0.006013 -0.68539,0.017884l0,0l-2.378255,7.502291l-1.082987,0.235238c-1.679029,0.366192 -3.280396,0.963254 -4.77195,1.747861l0,0l-0.974627,0.515111l-6.52492,-4.165729c-0.360251,0.288829 -0.713939,0.586543 -1.05513,0.893315l0,0l2.892282,7.235737l-0.679475,0.885799c-1.059549,1.383127 -1.94044,2.898805 -2.600918,4.526095l0,0l-0.41809,1.031767l-7.561045,1.063001c-0.095912,0.455638 -0.180832,0.909717 -0.25186,1.366816l0,0l6.77828,3.643166l0.041719,1.122525c0.07101,1.811997 0.369046,3.550954 0.881591,5.176765l0,0l0.335399,1.068934l-5.119074,5.757375c0.215298,0.413863 0.439347,0.817316 0.673689,1.211856l0,0l7.517063,-1.645157l0.748362,0.824809c1.153258,1.283449 2.47054,2.39855 3.921842,3.324651l0,0l0.936539,0.593965l-0.286317,7.844684c0.424697,0.169731 0.854512,0.329073 1.290185,0.476514l0,0l4.758065,-6.220379l1.086617,0.13542c0.820104,0.105727 1.61823,0.174217 2.41272,0.174217l0,0c0.854505,0 1.716324,-0.0759 2.597219,-0.202465l0,0l1.09617,-0.156281l4.794646,6.269489l0,0l0.000002,0.000002zm2.168869,-16.153902l1.048534,1.63765l-6.647193,4.396608l-2.35923,-3.690907l0,0c-0.858206,0.212884 -1.760312,0.338043 -2.699018,0.338043l0,0c-6.495648,0 -11.758927,-5.3524 -11.758927,-11.949442l0,0c0,-6.602956 5.263279,-11.953879 11.758927,-11.953879l0,0c6.488318,0 11.753017,5.350923 11.753017,11.953879l0,0c0,2.711127 -0.896215,5.222802 -2.398743,7.228311l0,0l1.302633,2.039739m-4.471769,0.629716l0.207221,-0.133942l-1.89501,-2.96425l1.098335,-1.116668c1.435943,-1.463516 2.316803,-3.460036 2.316803,-5.682905l0,0c-0.008063,-4.444139 -3.547664,-8.042733 -7.913947,-8.051619l0,0c-4.376566,0.008887 -7.912503,3.602986 -7.919829,8.051619l0,0c0.007326,4.439715 3.546922,8.038221 7.919829,8.047191l0,0c0.976764,0 1.916981,-0.203995 2.827134,-0.558328l0,0l1.451278,-0.565762l1.908186,2.974665l0,0z" stroke-width="1.5" fill="none"/>
  <path stroke="#000" transform="rotate(-95.271484375 257.32644653320307,230.68019104003906) " id="svg_69" d="m276.445557,232.215648l6.596949,-3.845994c-0.129684,-1.424983 -0.380316,-2.807305 -0.693858,-4.166195l-7.328267,-1.118586c-0.634287,-1.68426 -1.471885,-3.246365 -2.456464,-4.680304l2.793437,-7.572958c-0.918533,-0.987433 -1.910512,-1.887686 -2.954586,-2.716054l-6.22265,4.306091c-1.459218,-0.845865 -3.031385,-1.48831 -4.681786,-1.900919l-2.248769,-7.679314c-0.637772,-0.053087 -1.275361,-0.109173 -1.925766,-0.109173s-1.286191,0.054791 -1.925881,0.109173l-2.226491,7.611292c-1.694641,0.399388 -3.301522,1.049295 -4.798248,1.9056l-6.125743,-4.24275c-1.042752,0.828367 -2.03469,1.728622 -2.95315,2.716054l2.716563,7.363779c-1.058784,1.495778 -1.945226,3.146156 -2.611023,4.92487l-7.096921,1.081906c-0.312218,1.356981 -0.564162,2.737837 -0.692511,4.166025l6.369661,3.714809c0.072165,1.955491 0.366287,3.850681 0.887113,5.635361l-4.804929,5.85623c0.558941,1.277892 1.18123,2.517175 1.901118,3.679859l7.074175,-1.674027c1.159864,1.391077 2.481334,2.609887 3.939308,3.6178l-0.268138,7.978295c1.161815,0.577593 2.368959,1.060991 3.61296,1.447381l4.475425,-6.341152c0.794079,0.111746 1.59819,0.18701 2.418354,0.18701c0.888496,0 1.757397,-0.088478 2.612307,-0.21795l4.49873,6.37633c1.245953,-0.385943 2.451259,-0.869316 3.612956,-1.446941l-0.273312,-8.121575c1.389641,-0.99168 2.64973,-2.178086 3.76064,-3.517576l7.258151,1.716698c0.719892,-1.162506 1.342266,-2.40047 1.901005,-3.679431l-4.960556,-6.047971c0.476519,-1.690445 0.742703,-3.474947 0.820198,-5.315694l-0.000002,0zm-10.964619,9.238413l-3.127728,2.244421l-1.923762,-3.258059c-1.000769,0.424315 -2.078212,0.682323 -3.214011,0.682323c-4.960534,0 -8.980585,-4.432999 -8.980585,-9.900093c0,-5.467315 4.020051,-9.898599 8.980585,-9.898599c4.959239,0 8.980759,4.431284 8.980759,9.898599c0,2.732069 -1.004055,5.20183 -2.627039,6.993776l1.91178,3.237632z" stroke-width="1.5" fill="none"/>
  <text xml:space="preserve" text-anchor="start" font-family="'Courier New', Courier, monospace" font-size="24" id="svg_70" y="376.089341" x="203.6267" stroke-width="0" stroke="#000" fill="#000000">app &amp; teaser</text>
 </g>
</svg>